<svg xmlns="http://www.w3.org/2000/svg" viewBox="0 0 1339 1809"><defs><style>.cls-1{fill:#fefefe;}.cls-2{fill:#97b793;}.cls-3{fill:#7ca184;}.cls-4{fill:#e6e6e6;}.cls-5{fill:#999;}.cls-6{fill:#666;}.cls-7{fill:#b3b3b3;}</style></defs><title>sadusunt</title><g id="Layer_1" data-name="Layer 1"><rect class="cls-1" y="80" width="1339" height="1729"/><rect class="cls-2" width="1339" height="80"/><circle class="cls-3" cx="72.58" cy="39.25" r="29.75"/><path class="cls-3" d="M170,39.5h0Z"/><path class="cls-3" d="M170,69.5H339c15.69,0,30.73-13.8,30-30s-13.18-30-30-30H170c-15.69,0-30.73,13.8-30,30s13.18,30,30,30H339c15.69,0,30.73-13.8,30-30s-13.18-30-30-30H170c-15.69,0-30.73,13.8-30,30S153.18,69.5,170,69.5Z"/><path class="cls-3" d="M946,40h0Z"/><path class="cls-3" d="M946,65h47c13.08,0,25.6-11.5,25-25s-11-25-25-25H946c-13.08,0-25.6,11.5-25,25s11,25,25,25h47c13.08,0,25.6-11.5,25-25s-11-25-25-25H946c-13.08,0-25.6,11.5-25,25S932,65,946,65Z"/><path class="cls-3" d="M1056,39.5h0Z"/><path class="cls-3" d="M1056,64.5h79c13.08,0,25.6-11.5,25-25s-11-25-25-25h-79c-13.08,0-25.6,11.5-25,25s11,25,25,25h79c13.08,0,25.6-11.5,25-25s-11-25-25-25h-79c-13.08,0-25.6,11.5-25,25S1042,64.5,1056,64.5Z"/><path class="cls-3" d="M1199,39.5h0Z"/><path class="cls-3" d="M1199,64.5h65c13.08,0,25.6-11.5,25-25s-11-25-25-25h-65c-13.08,0-25.6,11.5-25,25s11,25,25,25h65c13.08,0,25.6-11.5,25-25s-11-25-25-25h-65c-13.08,0-25.6,11.5-25,25S1185,64.5,1199,64.5Z"/><rect class="cls-4" x="752.5" y="253.5" width="434" height="434"/><rect class="cls-4" x="192.39" y="811.5" width="385.78" height="488"/><rect class="cls-4" x="272.63" y="1467" width="184.37" height="226"/><rect class="cls-4" x="502.42" y="1467" width="273.58" height="226"/><rect class="cls-4" x="819.64" y="1467" width="152.93" height="226"/><rect class="cls-4" x="1016" y="1467" width="152.93" height="226"/><path class="cls-5" d="M168,319H390c10.46,0,20.48-9.2,20-20s-8.79-20-20-20H168c-10.46,0-20.48,9.2-20,20s8.79,20,20,20H390c10.46,0,20.48-9.2,20-20s-8.79-20-20-20H168c-10.46,0-20.48,9.2-20,20S156.79,319,168,319Z"/><path class="cls-5" d="M770,878.5H973c10.46,0,20.48-9.2,20-20s-8.79-20-20-20H770c-10.46,0-20.48,9.2-20,20s8.79,20,20,20H973c10.46,0,20.48-9.2,20-20s-8.79-20-20-20H770c-10.46,0-20.48,9.2-20,20S758.79,878.5,770,878.5Z"/></g><g id="Layer_2" data-name="Layer 2"><path class="cls-6" d="M156,358.5h0Z"/><path class="cls-7" d="M156,366H476.84c14.79,0,29.73.62,44.51,0H522c9.65,0,9.67-15,0-15H201.16c-14.79,0-29.73-.62-44.51,0H156c-9.65,0-9.67,15,0,15H476.84c14.79,0,29.73.62,44.51,0H522c9.65,0,9.67-15,0-15H201.16c-14.79,0-29.73-.62-44.51,0H156C146.35,351,146.33,366,156,366Z"/><path class="cls-6" d="M156,388h0Z"/><path class="cls-7" d="M156,395.5H433c9.65,0,9.67-15,0-15H156c-9.65,0-9.67,15,0,15H433c9.65,0,9.67-15,0-15H156C146.35,380.5,146.33,395.5,156,395.5Z"/><path class="cls-6" d="M156,418h0Z"/><path class="cls-7" d="M156,425.5H476.84c14.79,0,29.73.62,44.51,0H522c9.65,0,9.67-15,0-15H201.16c-14.79,0-29.73-.62-44.51,0H156c-9.65,0-9.67,15,0,15H476.84c14.79,0,29.73.62,44.51,0H522c9.65,0,9.67-15,0-15H201.16c-14.79,0-29.73-.62-44.51,0H156C146.35,410.5,146.33,425.5,156,425.5Z"/><path class="cls-6" d="M156,443h0Z"/><path class="cls-7" d="M156,450.5H482c9.65,0,9.67-15,0-15H156c-9.65,0-9.67,15,0,15H482c9.65,0,9.67-15,0-15H156C146.35,435.5,146.33,450.5,156,450.5Z"/><path class="cls-6" d="M156,471h0Z"/><path class="cls-7" d="M156,478.5H476.84c14.79,0,29.73.62,44.51,0H522c9.65,0,9.67-15,0-15H201.16c-14.79,0-29.73-.62-44.51,0H156c-9.65,0-9.67,15,0,15H476.84c14.79,0,29.73.62,44.51,0H522c9.65,0,9.67-15,0-15H201.16c-14.79,0-29.73-.62-44.51,0H156C146.35,463.5,146.33,478.5,156,478.5Z"/><path class="cls-6" d="M156,499h0Z"/><path class="cls-7" d="M156,506.5H488c9.65,0,9.67-15,0-15H156c-9.65,0-9.67,15,0,15H488c9.65,0,9.67-15,0-15H156C146.35,491.5,146.33,506.5,156,506.5Z"/><path class="cls-6" d="M156,527h0Z"/><path class="cls-7" d="M156,534.5H476.84c14.79,0,29.73.62,44.51,0H522c9.65,0,9.67-15,0-15H201.16c-14.79,0-29.73-.62-44.51,0H156c-9.65,0-9.67,15,0,15H476.84c14.79,0,29.73.62,44.51,0H522c9.65,0,9.67-15,0-15H201.16c-14.79,0-29.73-.62-44.51,0H156C146.35,519.5,146.33,534.5,156,534.5Z"/><path class="cls-6" d="M156,555h0Z"/><path class="cls-7" d="M156,562.5h36c9.65,0,9.67-15,0-15H156c-9.65,0-9.67,15,0,15h36c9.65,0,9.67-15,0-15H156C146.35,547.5,146.33,562.5,156,562.5Z"/><path class="cls-6" d="M751,917h0Z"/><path class="cls-7" d="M751,924.5h412.18c19,0,38.07.71,57,0h.81c9.65,0,9.67-15,0-15H808.82c-19,0-38.07-.71-57,0H751c-9.65,0-9.67,15,0,15h412.18c19,0,38.07.71,57,0h.81c9.65,0,9.67-15,0-15H808.82c-19,0-38.07-.71-57,0H751C741.35,909.5,741.33,924.5,751,924.5Z"/><path class="cls-6" d="M751,945h0Z"/><path class="cls-7" d="M751,952.5h425.36c19.55,0,39.27.74,58.81,0h.83c9.65,0,9.67-15,0-15H810.64c-19.55,0-39.27-.74-58.81,0H751c-9.65,0-9.67,15,0,15h425.36c19.55,0,39.27.74,58.81,0h.83c9.65,0,9.67-15,0-15H810.64c-19.55,0-39.27-.74-58.81,0H751C741.35,937.5,741.33,952.5,751,952.5Z"/><path class="cls-6" d="M751,973h0Z"/><path class="cls-7" d="M751,980.5h412.18c19,0,38.07.71,57,0h.81c9.65,0,9.67-15,0-15H808.82c-19,0-38.07-.71-57,0H751c-9.65,0-9.67,15,0,15h412.18c19,0,38.07.71,57,0h.81c9.65,0,9.67-15,0-15H808.82c-19,0-38.07-.71-57,0H751C741.35,965.5,741.33,980.5,751,980.5Z"/><path class="cls-6" d="M751,1001h0Z"/><path class="cls-7" d="M751,1008.5h412.18c19,0,38.07.71,57,0h.81c9.65,0,9.67-15,0-15H808.82c-19,0-38.07-.71-57,0H751c-9.65,0-9.67,15,0,15h412.18c19,0,38.07.71,57,0h.81c9.65,0,9.67-15,0-15H808.82c-19,0-38.07-.71-57,0H751C741.35,993.5,741.33,1008.5,751,1008.5Z"/><path class="cls-6" d="M751,1029h0Z"/><path class="cls-7" d="M751,1036.5h422c19.34,0,38.85.74,58.19,0h.83c9.65,0,9.67-15,0-15H810c-19.34,0-38.85-.74-58.19,0H751c-9.65,0-9.67,15,0,15h422c19.34,0,38.85.74,58.19,0h.83c9.65,0,9.67-15,0-15H810c-19.34,0-38.85-.74-58.19,0H751C741.35,1021.5,741.33,1036.5,751,1036.5Z"/><path class="cls-6" d="M751,1055h0Z"/><path class="cls-7" d="M751,1062.5h425.36c19.55,0,39.27.74,58.81,0h.83c9.65,0,9.67-15,0-15H810.64c-19.55,0-39.27-.74-58.81,0H751c-9.65,0-9.67,15,0,15h425.36c19.55,0,39.27.74,58.81,0h.83c9.65,0,9.67-15,0-15H810.64c-19.55,0-39.27-.74-58.81,0H751C741.35,1047.5,741.33,1062.5,751,1062.5Z"/><path class="cls-6" d="M751,1085h0Z"/><path class="cls-7" d="M751,1092.5h425.36c19.55,0,39.27.74,58.81,0h.83c9.65,0,9.67-15,0-15H810.64c-19.55,0-39.27-.74-58.81,0H751c-9.65,0-9.67,15,0,15h425.36c19.55,0,39.27.74,58.81,0h.83c9.65,0,9.67-15,0-15H810.64c-19.55,0-39.27-.74-58.81,0H751C741.35,1077.5,741.33,1092.5,751,1092.5Z"/><path class="cls-6" d="M751,1113h0Z"/><path class="cls-7" d="M751,1120.5h379.69c17.46,0,35.08.7,52.54,0h.77c9.65,0,9.67-15,0-15H804.31c-17.46,0-35.08-.7-52.54,0H751c-9.65,0-9.67,15,0,15h379.69c17.46,0,35.08.7,52.54,0h.77c9.65,0,9.67-15,0-15H804.31c-17.46,0-35.08-.7-52.54,0H751C741.35,1105.5,741.33,1120.5,751,1120.5Z"/><path class="cls-6" d="M751,1141h0Z"/><path class="cls-7" d="M751,1148.5h397.28c18.26,0,36.69.73,54.93,0h.79c9.65,0,9.67-15,0-15H806.72c-18.26,0-36.69-.73-54.93,0H751c-9.65,0-9.67,15,0,15h397.28c18.26,0,36.69.73,54.93,0h.79c9.65,0,9.67-15,0-15H806.72c-18.26,0-36.69-.73-54.93,0H751C741.35,1133.5,741.33,1148.5,751,1148.5Z"/><path class="cls-6" d="M751,1169h0Z"/><path class="cls-7" d="M751,1176.5h333.19c15.33,0,30.82.65,46.13,0h.68c9.65,0,9.67-15,0-15H797.81c-15.33,0-30.82-.65-46.13,0H751c-9.65,0-9.67,15,0,15h333.19c15.33,0,30.82.65,46.13,0h.68c9.65,0,9.67-15,0-15H797.81c-15.33,0-30.82-.65-46.13,0H751C741.35,1161.5,741.33,1176.5,751,1176.5Z"/><path class="cls-6" d="M751,1197h0Z"/><path class="cls-7" d="M751,1204.5H896c9.65,0,9.67-15,0-15H751c-9.65,0-9.67,15,0,15H896c9.65,0,9.67-15,0-15H751C741.35,1189.5,741.33,1204.5,751,1204.5Z"/></g></svg>